<svg width="90" height="73" viewBox="0 0 90 73" fill="none" xmlns="http://www.w3.org/2000/svg">
<rect width="90" height="73" fill="white"/>
<path d="M55.1866 60.0636C57.896 59.5134 59.9352 57.1194 59.9352 54.2495C59.9352 50.9728 57.277 48.3165 53.9979 48.3165H47.984M55.1866 60.0636C54.8025 60.1416 54.405 60.1825 53.9979 60.1825H53.1135V63.0233C54.1242 62.834 56.335 62.7961 57.093 64.1595C57.851 65.5229 57.872 66.6213 57.7878 67H37.6474M55.1866 60.0636L58.988 61.1297C59.7966 61.4831 62.5492 65.464 63.8125 67C63.8125 67 66.7828 67 68.538 67C68.8081 63.3086 66.5476 63.3089 65.1159 62.0044L65.4538 41.1094C65.4538 38.3795 65.4538 38.2642 65.4538 37.5917C65.4538 36.9193 64.1624 30.519 63.8125 30.0912C62.7917 23.0583 69.0434 26.9133 68.8427 22.436C69.7295 21.4286 66.6458 16.9667 65.1159 15.3033C65.6852 13.9 64.6776 8.51639 64.1027 6L58.6879 11.519C58.6619 11.5187 58.6359 11.5185 58.6097 11.5185C57.7021 11.5185 56.811 11.6418 55.9587 11.873C55.7447 9.56335 55.0529 5.24765 53.9979 6.4623C52.9429 7.67695 50.498 14.3667 49.4073 17.5597C49.0274 18.5249 48.8176 19.5703 48.8176 20.6686C48.8176 23.3618 48.2323 26.7517 49.2719 29.3773H49.1972C38.5917 29.3773 29.9942 37.5216 29.9942 47.5681C29.9942 52.7305 34.0013 59.014 37.6474 62.325V67M37.6474 67C32.1361 66.8746 24.5256 66.3771 22.4659 54.2495C20.8186 44.551 23.4514 40.3978 31.7759 32.0791C35.5992 28.2585 39.0272 22.6159 33.9073 17.5597" stroke="#5F6FFF" stroke-width="2" stroke-linecap="round" stroke-linejoin="round"/>
</svg>
