<svg width="365" height="90" viewBox="0 0 365 90" fill="none" xmlns="http://www.w3.org/2000/svg">
<rect width="365" height="90" fill="white"/>
<path d="M104.225 61V31.115H109.514L120.006 54.55L130.455 31.115H135.701V61H130.799V40.532L121.683 61H118.286L109.127 40.532V61H104.225ZM152.12 41.048C148.809 41.048 146.143 43.284 145.627 47.025H158.742C158.656 43.37 155.775 41.048 152.12 41.048ZM163.214 53.948C161.881 58.076 158.14 61.387 152.335 61.387C145.541 61.387 140.51 56.571 140.51 49.132C140.51 41.693 145.326 36.92 152.335 36.92C159.086 36.92 163.859 41.607 163.859 48.573C163.859 49.39 163.816 50.164 163.687 50.981H145.584C145.928 54.894 148.723 57.259 152.335 57.259C155.345 57.259 157.022 55.797 157.925 53.948H163.214ZM191.258 49.132C191.258 56.571 185.754 61.387 178.96 61.387C172.209 61.387 167.092 56.571 167.092 49.132C167.092 41.693 172.424 36.92 179.175 36.92C185.926 36.92 191.258 41.693 191.258 49.132ZM172.08 49.132C172.08 54.507 175.262 57.13 178.96 57.13C182.615 57.13 186.227 54.507 186.227 49.132C186.227 43.757 182.744 41.177 179.089 41.177C175.391 41.177 172.08 43.757 172.08 49.132ZM200.705 61L193.309 37.307H198.297L203.242 56.356L208.273 37.307H213.39L218.206 56.27L223.108 37.307H227.924L220.571 61H215.411L210.638 43.499L205.865 61H200.705ZM231.587 61V31.115H236.876L247.368 54.55L257.817 31.115H263.063V61H258.161V40.532L249.045 61H245.648L236.489 40.532V61H231.587ZM279.482 41.048C276.171 41.048 273.505 43.284 272.989 47.025H286.104C286.018 43.37 283.137 41.048 279.482 41.048ZM290.576 53.948C289.243 58.076 285.502 61.387 279.697 61.387C272.903 61.387 267.872 56.571 267.872 49.132C267.872 41.693 272.688 36.92 279.697 36.92C286.448 36.92 291.221 41.607 291.221 48.573C291.221 49.39 291.178 50.164 291.049 50.981H272.946C273.29 54.894 276.085 57.259 279.697 57.259C282.707 57.259 284.384 55.797 285.287 53.948H290.576ZM294.411 49.046C294.411 41.736 299.356 36.92 305.591 36.92C309.59 36.92 312.342 38.812 313.804 40.747V37.307H318.749V61H313.804V57.474C312.299 59.495 309.461 61.387 305.505 61.387C299.356 61.387 294.411 56.356 294.411 49.046ZM313.804 49.132C313.804 44.058 310.321 41.177 306.623 41.177C302.968 41.177 299.442 43.929 299.442 49.046C299.442 54.163 302.968 57.13 306.623 57.13C310.321 57.13 313.804 54.249 313.804 49.132ZM325.188 61V29.18H330.09V61H325.188Z" fill="#5F6FFF"/>
<path d="M70.2476 73.5854C73.5335 72.9179 76.0065 70.0137 76.0065 66.5322C76.0065 62.5571 72.7827 59.3347 68.806 59.3347H61.5125M70.2476 73.5854C69.7818 73.68 69.2997 73.7296 68.806 73.7296H67.7334V77.1758C68.9591 76.9461 71.6403 76.9002 72.5596 78.5542C73.4789 80.2082 73.5044 81.5406 73.4023 82H48.9766M70.2476 73.5854L74.8578 74.8786C75.8384 75.3074 79.1767 80.1367 80.7088 82C80.7088 82 84.3111 82 86.4397 82C86.7672 77.522 84.0259 77.5223 82.2894 75.9398L82.6993 50.5918C82.6993 47.28 82.6993 47.1401 82.6993 46.3244C82.6993 45.5087 81.1331 37.7444 80.7088 37.2254C79.4707 28.6937 87.0527 33.3702 86.8092 27.9388C87.8847 26.7167 84.145 21.3039 82.2894 19.2859C82.9799 17.5836 81.758 11.0527 81.0607 8L74.4939 14.6952C74.4623 14.6948 74.4307 14.6945 74.399 14.6945C73.2983 14.6945 72.2176 14.8441 71.184 15.1247C70.9244 12.3228 70.0855 7.08732 68.806 8.56083C67.5266 10.0343 64.5614 18.1498 63.2387 22.0233C62.7779 23.1941 62.5235 24.4623 62.5235 25.7947C62.5235 29.0618 61.8137 33.1742 63.0744 36.3593H62.9839C50.1218 36.3593 39.6951 46.2393 39.6951 58.4269C39.6951 64.6894 44.5548 72.3121 48.9766 76.3287V82M48.9766 82C42.2927 81.8479 33.063 81.2443 30.565 66.5322C28.5673 54.7668 31.7602 49.7284 41.8559 39.6369C46.4927 35.0022 50.65 28.157 44.4408 22.0233" stroke="#5F6FFF" stroke-width="2" stroke-linecap="round" stroke-linejoin="round"/>
</svg>
